<svg xmlns="http://www.w3.org/2000/svg" width="700" height="1632" viewBox="0 0 700 1632" role="img" aria-label="プロジェクトタイムライン">
<style>
    text { font-family: ui-sans-serif, system-ui, -apple-system, BlinkMacSystemFont, 'Segoe UI', sans-serif; fill: #1f2937; }
    .title { font-size: 18px; font-weight: 700; fill: #0f172a; }
    .caption { font-size: 11px; fill: #64748b; }
    .section { font-size: 13px; font-weight: 700; fill: #0f172a; }
    .label { font-size: 12px; font-weight: 500; }
    .axis { font-size: 11px; fill: #475569; }
    .grid { stroke: #d7dee7; stroke-width: 1; }
    .row-grid { stroke: #edf2f7; stroke-width: 1; }
    .shade { fill: #f8fafc; }
    .holiday { fill: #eff6ff; }
    .legend-label { font-size: 11px; fill: #475569; }
  </style>
<rect x="0" y="0" width="700" height="1632" fill="#fffdf8" />
<rect x="0" y="0" width="380" height="1632" fill="#fffaf0" />
<rect x="380" y="0" width="320" height="1632" fill="#ffffff" />
<text class="title" x="16" y="28">プロジェクトタイムライン</text>
<text class="caption" x="16" y="48">1 タスク 1 行で表示します。1 日の長さは 8 時間で、休日と週末は空白のままとし、次の稼働日に作業を再開します。</text>
<rect x="0" y="72" width="700" height="28" fill="#fff7ed" />
<rect x="16" y="64" width="14" height="14" rx="3" fill="#d1d5db" />
<text class="legend-label" x="36" y="78">todo</text>
<rect x="92" y="64" width="14" height="14" rx="3" fill="#2563eb" />
<text class="legend-label" x="112" y="78">doing</text>
<rect x="168" y="64" width="14" height="14" rx="3" fill="#16a34a" />
<text class="legend-label" x="188" y="78">done</text>
<rect x="244" y="64" width="14" height="14" rx="3" fill="#f59e0b" />
<text class="legend-label" x="264" y="78">blocked</text>
<rect x="320" y="64" width="14" height="14" rx="3" fill="#dc2626" />
<text class="legend-label" x="340" y="78">critical</text>
<rect x="396" y="64" width="14" height="14" fill="#eff6ff" />
<text class="legend-label" x="416" y="78">holiday</text>
<rect x="486" y="64" width="14" height="14" fill="#f8fafc" stroke="#d7dee7" />
<text class="legend-label" x="506" y="78">weekend</text>
<rect class="shade" x="380" y="88" width="56" height="1524" />
<line class="grid" x1="380" y1="88" x2="380" y2="1600" />
<text class="axis" x="386" y="90">05/24</text>
<line class="grid" x1="436" y1="88" x2="436" y2="1600" />
<text class="axis" x="442" y="90">05/25</text>
<line class="grid" x1="492" y1="88" x2="492" y2="1600" />
<text class="axis" x="498" y="90">05/26</text>
<line class="grid" x1="548" y1="88" x2="548" y2="1600" />
<text class="axis" x="554" y="90">05/27</text>
<line class="grid" x1="604" y1="88" x2="604" y2="1600" />
<text class="axis" x="610" y="90">05/28</text>
<line class="grid" x1="660" y1="88" x2="660" y2="1600" />
<rect x="0" y="90" width="700" height="30" fill="#f1f5f9" />
<text class="section" x="16" y="108">マイルストーン</text>
<line class="grid" x1="0" y1="116" x2="700" y2="116" />
<text class="label" x="16" y="146">M-LAUNCH-PJM-SCH-900 スケジュールグループ完了</text>
<line class="row-grid" x1="0" y1="154" x2="700" y2="154" />
<polygon points="460.5,137 467.5,144 460.5,151 453.5,144" fill="#b45309" />
<text class="label" x="16" y="170">M-LAUNCH-PJM-PLAN-900 管理計画グループ完了</text>
<line class="row-grid" x1="0" y1="178" x2="700" y2="178" />
<polygon points="492,161 499,168 492,175 485,168" fill="#b45309" />
<text class="label" x="16" y="194">M-LAUNCH-PJM-ORG-900 組織体制グループ完了</text>
<line class="row-grid" x1="0" y1="202" x2="700" y2="202" />
<polygon points="541,185 548,192 541,199 534,192" fill="#b45309" />
<text class="label" x="16" y="218">M-LAUNCH-PJD-900 プロジェクト定義ドメイン完了</text>
<line class="row-grid" x1="0" y1="226" x2="700" y2="226" />
<polygon points="576,209 583,216 576,223 569,216" fill="#b45309" />
<rect x="0" y="224" width="700" height="30" fill="#f1f5f9" />
<text class="section" x="16" y="242">launch</text>
<line class="grid" x1="0" y1="250" x2="700" y2="250" />
<text class="label" x="16" y="280">T-LAUNCH-PJD-OVERVIEW-010 prj-overview たたき台作成</text>
<line class="row-grid" x1="0" y1="288" x2="700" y2="288" />
<rect x="436" y="266" width="14" height="12" rx="4" fill="#dc2626" stroke="#991b1b" stroke-width="1.25" opacity="0.94" />
<text class="label" x="16" y="304">T-LAUNCH-PJM-PLAN-010 pm-plan たたき台作成</text>
<line class="row-grid" x1="0" y1="312" x2="700" y2="312" />
<rect x="436" y="290" width="14" height="12" rx="4" fill="#d1d5db" stroke="#9ca3af" stroke-width="0.75" opacity="0.94" />
<text class="label" x="16" y="328">T-LAUNCH-PJM-SCHDEF-010 sch-defaults たたき台作成</text>
<line class="row-grid" x1="0" y1="336" x2="700" y2="336" />
<rect x="436" y="314" width="7" height="12" rx="4" fill="#16a34a" stroke="#334155" stroke-width="0.75" opacity="0.94" />
<text class="label" x="16" y="352">T-LAUNCH-PJM-SCHSTG-010 sch-strategy-launch たたき台作成</text>
<line class="row-grid" x1="0" y1="360" x2="700" y2="360" />
<rect x="436" y="338" width="7" height="12" rx="4" fill="#16a34a" stroke="#334155" stroke-width="0.75" opacity="0.94" />
<text class="label" x="16" y="376">T-LAUNCH-PJM-SCHDEF-020 sch-defaults スキーマ検証</text>
<line class="row-grid" x1="0" y1="384" x2="700" y2="384" />
<rect x="443" y="362" width="3.5" height="12" rx="4" fill="#16a34a" stroke="#334155" stroke-width="0.75" opacity="0.94" />
<text class="label" x="16" y="400">T-LAUNCH-PJM-SCHSTG-020 sch-strategy-launch スキーマ検証</text>
<line class="row-grid" x1="0" y1="408" x2="700" y2="408" />
<rect x="443" y="386" width="3.5" height="12" rx="4" fill="#16a34a" stroke="#334155" stroke-width="0.75" opacity="0.94" />
<text class="label" x="16" y="424">T-LAUNCH-PJM-SCHDEF-030 sch-defaults レビュー・修正</text>
<line class="row-grid" x1="0" y1="432" x2="700" y2="432" />
<rect x="446.5" y="410" width="7" height="12" rx="4" fill="#16a34a" stroke="#334155" stroke-width="0.75" opacity="0.94" />
<text class="label" x="16" y="448">T-LAUNCH-PJM-SCHSTG-030 sch-strategy-launch レビュー・修正</text>
<line class="row-grid" x1="0" y1="456" x2="700" y2="456" />
<rect x="446.5" y="434" width="7" height="12" rx="4" fill="#16a34a" stroke="#334155" stroke-width="0.75" opacity="0.94" />
<text class="label" x="16" y="472">T-LAUNCH-PJD-OVERVIEW-020 prj-overview レビュー・修正</text>
<line class="row-grid" x1="0" y1="480" x2="700" y2="480" />
<rect x="450" y="458" width="7" height="12" rx="4" fill="#dc2626" stroke="#991b1b" stroke-width="1.25" opacity="0.94" />
<text class="label" x="16" y="496">T-LAUNCH-PJM-PLAN-020 pm-plan レビュー・修正</text>
<line class="row-grid" x1="0" y1="504" x2="700" y2="504" />
<rect x="450" y="482" width="7" height="12" rx="4" fill="#d1d5db" stroke="#9ca3af" stroke-width="0.75" opacity="0.94" />
<text class="label" x="16" y="520">T-LAUNCH-PJM-SCHDEF-040 sch-defaults 完成版仕上げ</text>
<line class="row-grid" x1="0" y1="528" x2="700" y2="528" />
<rect x="453.5" y="506" width="7" height="12" rx="4" fill="#16a34a" stroke="#334155" stroke-width="0.75" opacity="0.94" />
<text class="label" x="16" y="544">T-LAUNCH-PJM-SCHSTG-040 sch-strategy-launch 完成版仕上げ</text>
<line class="row-grid" x1="0" y1="552" x2="700" y2="552" />
<rect x="453.5" y="530" width="7" height="12" rx="4" fill="#16a34a" stroke="#334155" stroke-width="0.75" opacity="0.94" />
<text class="label" x="16" y="568">T-LAUNCH-PJD-OVERVIEW-030 prj-overview 完成版仕上げ</text>
<line class="row-grid" x1="0" y1="576" x2="700" y2="576" />
<rect x="457" y="554" width="7" height="12" rx="4" fill="#dc2626" stroke="#991b1b" stroke-width="1.25" opacity="0.94" />
<text class="label" x="16" y="592">T-LAUNCH-PJM-PLAN-030 pm-plan 完成版仕上げ</text>
<line class="row-grid" x1="0" y1="600" x2="700" y2="600" />
<rect x="457" y="578" width="7" height="12" rx="4" fill="#d1d5db" stroke="#9ca3af" stroke-width="0.75" opacity="0.94" />
<text class="label" x="16" y="616">T-LAUNCH-PJD-SCOPE-010 prj-scope たたき台作成</text>
<line class="row-grid" x1="0" y1="624" x2="700" y2="624" />
<rect x="464" y="602" width="14" height="12" rx="4" fill="#dc2626" stroke="#991b1b" stroke-width="1.25" opacity="0.94" />
<text class="label" x="16" y="640">T-LAUNCH-PJD-STAKEHOLDER-010 prj-stakeholder-register たたき台作成</text>
<line class="row-grid" x1="0" y1="648" x2="700" y2="648" />
<rect x="464" y="626" width="14" height="12" rx="4" fill="#d1d5db" stroke="#9ca3af" stroke-width="0.75" opacity="0.94" />
<text class="label" x="16" y="664">T-LAUNCH-PJM-COMM-010 pm-communication-plan たたき台作成</text>
<line class="row-grid" x1="0" y1="672" x2="700" y2="672" />
<rect x="464" y="650" width="14" height="12" rx="4" fill="#d1d5db" stroke="#9ca3af" stroke-width="0.75" opacity="0.94" />
<text class="label" x="16" y="688">T-LAUNCH-PJM-ORG-010 pm-organization たたき台作成</text>
<line class="row-grid" x1="0" y1="696" x2="700" y2="696" />
<rect x="464" y="674" width="14" height="12" rx="4" fill="#d1d5db" stroke="#9ca3af" stroke-width="0.75" opacity="0.94" />
<text class="label" x="16" y="712">T-LAUNCH-PJM-QLTY-010 pm-quality-management-plan たたき台作成</text>
<line class="row-grid" x1="0" y1="720" x2="700" y2="720" />
<rect x="464" y="698" width="14" height="12" rx="4" fill="#d1d5db" stroke="#9ca3af" stroke-width="0.75" opacity="0.94" />
<text class="label" x="16" y="736">T-LAUNCH-PJD-SCOPE-020 prj-scope レビュー・修正</text>
<line class="row-grid" x1="0" y1="744" x2="700" y2="744" />
<rect x="478" y="722" width="7" height="12" rx="4" fill="#dc2626" stroke="#991b1b" stroke-width="1.25" opacity="0.94" />
<text class="label" x="16" y="760">T-LAUNCH-PJD-STAKEHOLDER-020 prj-stakeholder-register レビュー・修正</text>
<line class="row-grid" x1="0" y1="768" x2="700" y2="768" />
<rect x="478" y="746" width="7" height="12" rx="4" fill="#d1d5db" stroke="#9ca3af" stroke-width="0.75" opacity="0.94" />
<text class="label" x="16" y="784">T-LAUNCH-PJM-COMM-020 pm-communication-plan レビュー・修正</text>
<line class="row-grid" x1="0" y1="792" x2="700" y2="792" />
<rect x="478" y="770" width="7" height="12" rx="4" fill="#d1d5db" stroke="#9ca3af" stroke-width="0.75" opacity="0.94" />
<text class="label" x="16" y="808">T-LAUNCH-PJM-ORG-020 pm-organization レビュー・修正</text>
<line class="row-grid" x1="0" y1="816" x2="700" y2="816" />
<rect x="478" y="794" width="7" height="12" rx="4" fill="#d1d5db" stroke="#9ca3af" stroke-width="0.75" opacity="0.94" />
<text class="label" x="16" y="832">T-LAUNCH-PJM-QLTY-020 pm-quality-management-plan レビュー・修正</text>
<line class="row-grid" x1="0" y1="840" x2="700" y2="840" />
<rect x="478" y="818" width="7" height="12" rx="4" fill="#d1d5db" stroke="#9ca3af" stroke-width="0.75" opacity="0.94" />
<text class="label" x="16" y="856">T-LAUNCH-PJD-SCOPE-030 prj-scope 完成版仕上げ</text>
<line class="row-grid" x1="0" y1="864" x2="700" y2="864" />
<rect x="485" y="842" width="7" height="12" rx="4" fill="#dc2626" stroke="#991b1b" stroke-width="1.25" opacity="0.94" />
<text class="label" x="16" y="880">T-LAUNCH-PJD-STAKEHOLDER-030 prj-stakeholder-register 完成版仕上げ</text>
<line class="row-grid" x1="0" y1="888" x2="700" y2="888" />
<rect x="485" y="866" width="7" height="12" rx="4" fill="#d1d5db" stroke="#9ca3af" stroke-width="0.75" opacity="0.94" />
<text class="label" x="16" y="904">T-LAUNCH-PJM-COMM-030 pm-communication-plan 完成版仕上げ</text>
<line class="row-grid" x1="0" y1="912" x2="700" y2="912" />
<rect x="485" y="890" width="7" height="12" rx="4" fill="#d1d5db" stroke="#9ca3af" stroke-width="0.75" opacity="0.94" />
<text class="label" x="16" y="928">T-LAUNCH-PJM-ORG-030 pm-organization 完成版仕上げ</text>
<line class="row-grid" x1="0" y1="936" x2="700" y2="936" />
<rect x="485" y="914" width="7" height="12" rx="4" fill="#d1d5db" stroke="#9ca3af" stroke-width="0.75" opacity="0.94" />
<text class="label" x="16" y="952">T-LAUNCH-PJM-QLTY-030 pm-quality-management-plan 完成版仕上げ</text>
<line class="row-grid" x1="0" y1="960" x2="700" y2="960" />
<rect x="485" y="938" width="7" height="12" rx="4" fill="#d1d5db" stroke="#9ca3af" stroke-width="0.75" opacity="0.94" />
<text class="label" x="16" y="976">T-LAUNCH-PJD-ACD-010 prj-assumptions-constraints-dependencies たたき台作成</text>
<line class="row-grid" x1="0" y1="984" x2="700" y2="984" />
<rect x="492" y="962" width="14" height="12" rx="4" fill="#dc2626" stroke="#991b1b" stroke-width="1.25" opacity="0.94" />
<text class="label" x="16" y="1000">T-LAUNCH-PJD-CHARTER-010 prj-charter たたき台作成</text>
<line class="row-grid" x1="0" y1="1008" x2="700" y2="1008" />
<rect x="492" y="986" width="14" height="12" rx="4" fill="#d1d5db" stroke="#9ca3af" stroke-width="0.75" opacity="0.94" />
<text class="label" x="16" y="1024">T-LAUNCH-PJD-SUCCESS-010 prj-success-criteria-and-acceptance-criteria たたき台作成</text>
<line class="row-grid" x1="0" y1="1032" x2="700" y2="1032" />
<rect x="492" y="1010" width="14" height="12" rx="4" fill="#d1d5db" stroke="#9ca3af" stroke-width="0.75" opacity="0.94" />
<text class="label" x="16" y="1048">T-LAUNCH-PJM-RACI-010 pm-raci たたき台作成</text>
<line class="row-grid" x1="0" y1="1056" x2="700" y2="1056" />
<rect x="492" y="1034" width="14" height="12" rx="4" fill="#d1d5db" stroke="#9ca3af" stroke-width="0.75" opacity="0.94" />
<text class="label" x="16" y="1072">T-LAUNCH-PJM-ROLE-010 pm-roles たたき台作成</text>
<line class="row-grid" x1="0" y1="1080" x2="700" y2="1080" />
<rect x="492" y="1058" width="7" height="12" rx="4" fill="#d1d5db" stroke="#9ca3af" stroke-width="0.75" opacity="0.94" />
<text class="label" x="16" y="1096">T-LAUNCH-PJM-ROLE-020 pm-roles スキーマ検証</text>
<line class="row-grid" x1="0" y1="1104" x2="700" y2="1104" />
<rect x="499" y="1082" width="3.5" height="12" rx="4" fill="#d1d5db" stroke="#9ca3af" stroke-width="0.75" opacity="0.94" />
<text class="label" x="16" y="1120">T-LAUNCH-PJM-ROLE-030 pm-roles レビュー・修正</text>
<line class="row-grid" x1="0" y1="1128" x2="700" y2="1128" />
<rect x="502.5" y="1106" width="7" height="12" rx="4" fill="#d1d5db" stroke="#9ca3af" stroke-width="0.75" opacity="0.94" />
<text class="label" x="16" y="1144">T-LAUNCH-PJD-ACD-020 prj-assumptions-constraints-dependencies レビュー・修正</text>
<line class="row-grid" x1="0" y1="1152" x2="700" y2="1152" />
<rect x="506" y="1130" width="7" height="12" rx="4" fill="#dc2626" stroke="#991b1b" stroke-width="1.25" opacity="0.94" />
<text class="label" x="16" y="1168">T-LAUNCH-PJD-CHARTER-020 prj-charter レビュー・修正</text>
<line class="row-grid" x1="0" y1="1176" x2="700" y2="1176" />
<rect x="506" y="1154" width="7" height="12" rx="4" fill="#d1d5db" stroke="#9ca3af" stroke-width="0.75" opacity="0.94" />
<text class="label" x="16" y="1192">T-LAUNCH-PJD-SUCCESS-020 prj-success-criteria-and-acceptance-criteria レビュー・修正</text>
<line class="row-grid" x1="0" y1="1200" x2="700" y2="1200" />
<rect x="506" y="1178" width="7" height="12" rx="4" fill="#d1d5db" stroke="#9ca3af" stroke-width="0.75" opacity="0.94" />
<text class="label" x="16" y="1216">T-LAUNCH-PJM-RACI-020 pm-raci レビュー・修正</text>
<line class="row-grid" x1="0" y1="1224" x2="700" y2="1224" />
<rect x="506" y="1202" width="7" height="12" rx="4" fill="#d1d5db" stroke="#9ca3af" stroke-width="0.75" opacity="0.94" />
<text class="label" x="16" y="1240">T-LAUNCH-PJM-ROLE-040 pm-roles 完成版仕上げ</text>
<line class="row-grid" x1="0" y1="1248" x2="700" y2="1248" />
<rect x="509.5" y="1226" width="7" height="12" rx="4" fill="#d1d5db" stroke="#9ca3af" stroke-width="0.75" opacity="0.94" />
<text class="label" x="16" y="1264">T-LAUNCH-PJD-ACD-030 prj-assumptions-constraints-dependencies 完成版仕上げ</text>
<line class="row-grid" x1="0" y1="1272" x2="700" y2="1272" />
<rect x="513" y="1250" width="7" height="12" rx="4" fill="#dc2626" stroke="#991b1b" stroke-width="1.25" opacity="0.94" />
<text class="label" x="16" y="1288">T-LAUNCH-PJD-CHARTER-030 prj-charter 完成版仕上げ</text>
<line class="row-grid" x1="0" y1="1296" x2="700" y2="1296" />
<rect x="513" y="1274" width="7" height="12" rx="4" fill="#d1d5db" stroke="#9ca3af" stroke-width="0.75" opacity="0.94" />
<text class="label" x="16" y="1312">T-LAUNCH-PJD-SUCCESS-030 prj-success-criteria-and-acceptance-criteria 完成版仕上げ</text>
<line class="row-grid" x1="0" y1="1320" x2="700" y2="1320" />
<rect x="513" y="1298" width="7" height="12" rx="4" fill="#d1d5db" stroke="#9ca3af" stroke-width="0.75" opacity="0.94" />
<text class="label" x="16" y="1336">T-LAUNCH-PJM-RACI-030 pm-raci 完成版仕上げ</text>
<line class="row-grid" x1="0" y1="1344" x2="700" y2="1344" />
<rect x="513" y="1322" width="7" height="12" rx="4" fill="#d1d5db" stroke="#9ca3af" stroke-width="0.75" opacity="0.94" />
<text class="label" x="16" y="1360">T-LAUNCH-PJM-MBR-010 pm-members たたき台作成</text>
<line class="row-grid" x1="0" y1="1368" x2="700" y2="1368" />
<rect x="516.5" y="1346" width="7" height="12" rx="4" fill="#d1d5db" stroke="#9ca3af" stroke-width="0.75" opacity="0.94" />
<text class="label" x="16" y="1384">T-LAUNCH-PJD-ISSUES-010 prj-issues-and-approach たたき台作成</text>
<line class="row-grid" x1="0" y1="1392" x2="700" y2="1392" />
<rect x="520" y="1370" width="14" height="12" rx="4" fill="#dc2626" stroke="#991b1b" stroke-width="1.25" opacity="0.94" />
<text class="label" x="16" y="1408">T-LAUNCH-PJM-MBR-020 pm-members スキーマ検証</text>
<line class="row-grid" x1="0" y1="1416" x2="700" y2="1416" />
<rect x="523.5" y="1394" width="3.5" height="12" rx="4" fill="#d1d5db" stroke="#9ca3af" stroke-width="0.75" opacity="0.94" />
<text class="label" x="16" y="1432">T-LAUNCH-PJM-MBR-030 pm-members レビュー・修正</text>
<line class="row-grid" x1="0" y1="1440" x2="700" y2="1440" />
<rect x="527" y="1418" width="7" height="12" rx="4" fill="#d1d5db" stroke="#9ca3af" stroke-width="0.75" opacity="0.94" />
<text class="label" x="16" y="1456">T-LAUNCH-PJD-ISSUES-020 prj-issues-and-approach レビュー・修正</text>
<line class="row-grid" x1="0" y1="1464" x2="700" y2="1464" />
<rect x="534" y="1442" width="7" height="12" rx="4" fill="#dc2626" stroke="#991b1b" stroke-width="1.25" opacity="0.94" />
<text class="label" x="16" y="1480">T-LAUNCH-PJM-MBR-040 pm-members 完成版仕上げ</text>
<line class="row-grid" x1="0" y1="1488" x2="700" y2="1488" />
<rect x="534" y="1466" width="7" height="12" rx="4" fill="#d1d5db" stroke="#9ca3af" stroke-width="0.75" opacity="0.94" />
<text class="label" x="16" y="1504">T-LAUNCH-PJD-ISSUES-030 prj-issues-and-approach 完成版仕上げ</text>
<line class="row-grid" x1="0" y1="1512" x2="700" y2="1512" />
<rect x="541" y="1490" width="7" height="12" rx="4" fill="#dc2626" stroke="#991b1b" stroke-width="1.25" opacity="0.94" />
<text class="label" x="16" y="1528">T-LAUNCH-PJD-ALT-010 prj-comparison-of-alternatives たたき台作成</text>
<line class="row-grid" x1="0" y1="1536" x2="700" y2="1536" />
<rect x="548" y="1514" width="14" height="12" rx="4" fill="#dc2626" stroke="#991b1b" stroke-width="1.25" opacity="0.94" />
<text class="label" x="16" y="1552">T-LAUNCH-PJD-ALT-020 prj-comparison-of-alternatives レビュー・修正</text>
<line class="row-grid" x1="0" y1="1560" x2="700" y2="1560" />
<rect x="562" y="1538" width="7" height="12" rx="4" fill="#dc2626" stroke="#991b1b" stroke-width="1.25" opacity="0.94" />
<text class="label" x="16" y="1576">T-LAUNCH-PJD-ALT-030 prj-comparison-of-alternatives 完成版仕上げ</text>
<line class="row-grid" x1="0" y1="1584" x2="700" y2="1584" />
<rect x="569" y="1562" width="7" height="12" rx="4" fill="#dc2626" stroke="#991b1b" stroke-width="1.25" opacity="0.94" />
</svg>